<?xml version="1.0" standalone="no"?>
<!DOCTYPE svg PUBLIC "-//W3C//DTD SVG 20010904//EN"
 "http://www.w3.org/TR/2001/REC-SVG-20010904/DTD/svg10.dtd">
<svg version="1.0" xmlns="http://www.w3.org/2000/svg"
 width="700.000000pt" height="700.000000pt" viewBox="0 0 700.000000 700.000000"
 preserveAspectRatio="xMidYMid meet">
<metadata>
Created by potrace 1.14, written by Peter Selinger 2001-2017
</metadata>
<g transform="translate(0.000000,700.000000) scale(0.100000,-0.100000)"
fill="#000000" stroke="none">
<path d="M3448 6695 c-2 -2 -24 -6 -49 -9 -26 -3 -63 -12 -84 -19 l-37 -13 43
-19 c72 -32 173 -111 227 -176 77 -95 149 -255 169 -378 13 -77 7 -368 -12
-611 -3 -30 -7 -109 -10 -175 -3 -66 -8 -151 -10 -190 -2 -38 -7 -117 -10
-175 -3 -58 -7 -136 -10 -175 -2 -38 -7 -122 -11 -185 -3 -63 -7 -140 -9 -170
-19 -295 -22 -415 -11 -489 30 -216 125 -386 261 -465 60 -36 171 -66 256 -69
109 -5 113 -2 88 53 -22 47 -63 220 -73 305 -28 225 -28 464 -1 905 1 25 5
115 9 200 4 85 9 182 11 215 3 33 7 119 10 190 3 72 8 155 10 185 21 329 21
531 0 640 -3 14 -9 48 -14 76 -24 126 -91 274 -162 357 -83 96 -207 165 -337
187 -53 9 -235 13 -244 5z"/>
<path d="M3281 6387 c-28 -45 -142 -153 -234 -221 -226 -167 -265 -188 -1497
-807 -435 -218 -526 -275 -666 -416 -272 -275 -278 -597 -17 -908 32 -38 63
-70 68 -70 5 0 7 30 6 66 -6 181 71 367 215 515 120 123 35 77 1309 709 642
318 716 361 817 474 163 181 193 373 92 587 -18 38 -42 78 -52 88 -19 16 -20
16 -41 -17z"/>
<path d="M4508 6075 c-2 -1 -30 -5 -63 -8 -53 -6 -109 -18 -155 -33 -9 -3 1
-12 28 -24 203 -91 359 -313 399 -568 12 -76 7 -315 -12 -562 -2 -30 -7 -109
-10 -175 -4 -66 -8 -145 -10 -175 -2 -30 -7 -116 -11 -190 -4 -74 -8 -153 -9
-175 -2 -22 -6 -103 -10 -180 -4 -77 -9 -158 -10 -180 -20 -318 -23 -451 -12
-530 23 -164 88 -306 179 -391 98 -90 201 -129 352 -133 82 -2 103 3 87 22
-25 31 -72 212 -85 328 -4 31 -9 67 -11 79 -4 22 -18 263 -18 310 0 22 10 240
18 390 2 30 6 114 9 185 4 72 8 162 11 200 2 39 7 129 10 200 10 208 12 252
21 405 17 294 11 502 -15 640 -57 290 -220 486 -456 545 -52 13 -218 28 -227
20z"/>
<path d="M5440 5503 c-32 -4 -139 -24 -162 -30 -20 -5 -24 -23 -6 -23 26 0
146 -81 202 -136 174 -171 248 -416 222 -724 -3 -25 -7 -103 -11 -175 -3 -71
-8 -152 -10 -180 -4 -45 -6 -96 -20 -365 -4 -78 -14 -241 -20 -345 -2 -33 -6
-109 -10 -170 -3 -60 -8 -146 -10 -190 -20 -334 -21 -351 -5 -467 44 -317 225
-501 505 -513 101 -4 122 2 107 31 -19 38 -31 70 -43 114 -11 44 -14 57 -24
101 -2 12 -7 47 -11 78 -3 31 -8 59 -10 62 -16 28 -23 423 -10 639 4 69 9 163
11 210 11 223 16 311 20 385 2 44 7 141 10 215 4 74 8 158 10 185 38 518 15
765 -92 976 -121 240 -353 356 -643 322z"/>
<path d="M3288 5282 c-24 -41 -120 -134 -214 -207 -192 -151 -325 -225 -1108
-619 -423 -213 -801 -408 -840 -433 -291 -188 -437 -388 -450 -616 -10 -166
75 -365 220 -519 20 -21 39 -38 42 -38 4 0 6 37 5 82 -5 228 112 441 332 605
36 27 306 167 675 350 338 168 732 363 875 434 148 73 288 150 325 178 186
140 284 305 282 471 -1 64 -3 75 -18 135 -10 44 -60 146 -86 178 l-23 28 -17
-29z"/>
<path d="M3239 4118 c-48 -68 -177 -183 -309 -274 -179 -125 -267 -172 -1015
-549 -468 -236 -809 -413 -870 -454 -120 -79 -277 -231 -327 -317 -40 -69 -73
-152 -83 -209 -25 -149 18 -316 118 -465 38 -56 126 -160 136 -160 4 0 7 30 7
68 -2 165 41 299 139 432 46 62 156 166 225 211 30 20 246 131 480 246 1373
679 1353 668 1463 777 44 44 107 124 134 173 7 12 21 54 32 93 38 137 10 288
-77 418 l-30 44 -23 -34z"/>
<path d="M3421 3224 c-81 -22 -149 -62 -216 -129 -55 -56 -134 -179 -122 -192
3 -3 25 -7 48 -9 102 -10 307 -87 514 -194 113 -57 275 -160 925 -585 495
-323 675 -436 740 -468 196 -93 321 -127 467 -129 93 -1 164 14 250 52 76 34
80 37 168 126 77 78 134 175 180 307 29 80 28 102 -2 75 -24 -21 -127 -72
-185 -92 -169 -56 -413 -30 -597 64 -23 11 -183 114 -354 227 -172 114 -402
266 -512 338 -110 72 -326 215 -481 317 -282 187 -332 216 -434 256 -127 50
-287 65 -389 36z"/>
<path d="M2468 2685 c-2 -2 -25 -6 -53 -9 -120 -15 -266 -121 -338 -245 -50
-86 -51 -91 -19 -92 154 -4 522 -162 799 -344 160 -104 315 -206 653 -426 146
-94 353 -230 461 -300 345 -225 524 -298 744 -304 299 -9 512 163 624 504 12
35 19 66 18 68 -2 2 -21 -9 -43 -25 -147 -105 -370 -140 -569 -91 -149 38
-198 65 -620 344 -369 244 -580 384 -1020 673 -207 137 -284 179 -388 211 -79
24 -237 47 -249 36z"/>
<path d="M1445 2123 c-150 -35 -261 -115 -340 -243 -39 -64 -47 -95 -25 -96
12 0 100 -14 120 -19 108 -25 462 -184 581 -261 24 -16 49 -31 54 -34 6 -3 64
-41 130 -84 66 -44 165 -109 220 -144 55 -36 172 -112 260 -170 88 -58 183
-119 210 -137 66 -43 291 -189 435 -283 177 -116 372 -203 520 -231 129 -25
292 -14 380 27 174 79 303 239 371 457 25 79 24 81 -13 56 -112 -74 -224 -110
-353 -116 -143 -6 -283 24 -415 90 -54 26 -978 630 -1017 664 -7 6 -14 11 -17
11 -3 0 -119 76 -258 168 -139 93 -279 185 -310 206 -82 54 -203 103 -323 133
-28 7 -186 11 -210 6z"/>
</g>
</svg>
